<svg xmlns="http://www.w3.org/2000/svg" width="447.758" height="169.153" viewBox="0 0 447.758 169.153"><g transform="translate(838 -6244)"><g transform="translate(-838 6244)"><path d="M168.35,86.653h39.681V96.675h-28.7v8.8l20.15.048v9.707h-20.15v11.668h28.762v10.043H168.35Z" transform="translate(39.923 -22.356)" fill="#1a1818"></path><path d="M224.784,85.248l28.833,52.446H241.786l-5.093-9.483h-24l-5.064,9.483H195.571Zm7,33.833-7.132-13.275-7.087,13.275Z" transform="translate(54.804 -23.124)" fill="#1a1818"></path><path d="M237.016,86.685l17.1-.09c18.064-.093,29.362,10.643,29.362,25.31s-11.3,25.064-29.362,25.064h-17.1Zm17.069,40.241c12.7-.045,18.364-5.74,18.364-15s-5.669-15.232-18.364-15.341L248,96.533v30.417Z" transform="translate(77.461 -22.388)" fill="#1a1818"></path><path d="M288.206,116.5,267.032,86.653h13.091L293.7,106.2l13.581-19.547H320.38L299.206,116.5v20.377h-11Z" transform="translate(93.869 -22.356)" fill="#1a1818"></path><g transform="translate(216.207 124.237)"><path d="M173.48,126.79h10.07l9.891,23.6,11.447-24.983,11.438,24.983,10.092-23.6h9.922l-20.093,43.534-11.359-26.292L193.52,170.324Z" transform="translate(-173.48 -125.407)" fill="#1a1818"></path><path d="M214.383,147.382c0-12.144,9.7-21.595,22.357-21.595s22.357,9.45,22.357,21.595-9.7,21.661-22.357,21.661S214.383,159.526,214.383,147.382Zm35.584.019a13.254,13.254,0,1,0-13.253,13.1A12.906,12.906,0,0,0,249.967,147.4Z" transform="translate(-151.12 -125.199)" fill="#1a1818"></path><path d="M273.167,167.931,257.2,150.508v17.423h-9.145V126.3h19.83c9.639,0,15.716,4.9,15.716,13.255,0,8.134-4.92,12.4-13.931,12.7l15.666,15.672ZM257.2,144.685h11.416c3.458,0,5.658-1.709,5.658-5.129,0-3.341-2.2-5.09-5.658-5.09H257.2Z" transform="translate(-132.714 -124.918)" fill="#1a1818"></path><path d="M305.09,167.931l-18.879-20.8v20.8h-9.145V126.3h9.145v16.435L301.619,126.3h12.186l-18.189,18.662,21.457,22.968Z" transform="translate(-116.853 -124.918)" fill="#1a1818"></path></g><path d="M90.7,122.47l53.309,4.156L201.666,71.5Z" transform="translate(-2.523 -30.64)" fill="#f77c0c"></path><path d="M108.323,92.052l-8.134,39.805-66.5-38.413Z" transform="translate(-33.691 -19.404)" fill="#005ead"></path><path d="M88.266,109.429l57.9,3.755-71.841,65.7Z" transform="translate(-11.476 -9.905)" fill="#711c7f"></path><path d="M106.121,142.718l30.517-28.377,29.294,61.709Z" transform="translate(5.904 -7.22)" fill="#7fb82c"></path><path d="M131.856,111.409,84.7,133.732,99.572,45.082Z" transform="translate(-5.804 -45.082)" fill="#e5004a"></path><g transform="translate(167.223 124.534)"><path d="M161.388,125.966a.464.464,0,0,1,.5.5l-.532,5.392a.6.6,0,0,1-.568.5H155.5v17.593a.508.508,0,0,1-.5.5h-6.278a.541.541,0,0,1-.532-.5V132.351h-5.888a.506.506,0,0,1-.5-.5V126.5a.539.539,0,0,1,.5-.532Z" transform="translate(-141.809 -125.398)" fill="#1a1818"></path><path d="M167.288,151.139c-7.554,0-12.591-5.109-12.591-12.735,0-7.7,5.038-12.8,12.591-12.8s12.593,5.109,12.593,12.8C179.881,146.031,174.844,151.139,167.288,151.139Zm0-18.374c-2.908,0-4.86,2.27-4.86,5.639s1.952,5.641,4.86,5.641,4.86-2.271,4.86-5.641S170.2,132.765,167.288,132.765Z" transform="translate(-134.764 -125.599)" fill="#1a1818"></path></g><g transform="translate(420.705 125.619)"><path d="M305.7,158.252h9.136v9.6H305.7Zm.2-31.951h8.74l-.9,27.107h-7.047Z" transform="translate(-305.698 -126.301)" fill="#1a1818"></path></g><g transform="translate(154.031 64.133)"><path d="M163.669,136.92l-19.322-21.081V136.92H133.28V86.547h23.993c11.662,0,19.018,5.925,19.018,16.039,0,9.841-5.953,15-16.859,15.371l18.959,18.964Zm-19.322-28.128H158.16c4.182,0,6.846-2.069,6.846-6.207,0-4.043-2.663-6.159-6.846-6.159H144.346Z" transform="translate(-133.28 -86.547)" fill="#1a1818"></path></g><g transform="translate(433.929 125.619)"><path d="M314.248,127.4v-1.1h5.6v1.1H317.7v5.474h-1.3V127.4Zm8.595-1.1,1.678,4.7,1.689-4.7h1.867v6.57h-1.2v-5.3l-1.817,5.3H324l-1.834-5.3v5.3h-1.2V126.3Z" transform="translate(-314.248 -126.301)" fill="#1a1818"></path></g></g></g></svg>